<svg xmlns="http://www.w3.org/2000/svg" width="240" height="240" viewBox="0 0 240 240">
  <g id="Logo_light_96px" transform="translate(0.13 -0.084)">
    <g id="Rectángulo_5" data-name="Rectángulo 5" transform="translate(-0.13 0.084)" fill="rgba(255,255,255,0)" stroke="rgba(0,0,0,0)" stroke-width="1">
      <rect width="240" height="240" stroke="none"/>
      <rect x="0.5" y="0.5" width="239" height="239" fill="none"/>
    </g>
    <g id="Logo_involve" data-name="Logo involve" transform="translate(2.493 32.495)">
      <path id="Trazado_1" data-name="Trazado 1" d="M840.817,625.915a18.984,18.984,0,0,1-9.161,10.2c-10.393,5.428-23.276.751-27.148-9.865-3.194-8.749,1.165-18.581,10.052-22.669,9.862-4.536,21.384-.579,25.8,8.908a16.6,16.6,0,0,1,1.165,10.879H813.741a7.5,7.5,0,0,0,2.35,3.73,9.626,9.626,0,0,0,13.444-.393,2.892,2.892,0,0,1,1.783-.751C834.409,625.875,837.5,625.915,840.817,625.915Zm-26.9-9.269h17.695c-.907-3.467-4.727-6.185-8.67-6.212C818.931,610.4,815.008,613.085,813.916,616.647Z" transform="translate(-612.95 -478.868)"/>
      <path id="Trazado_2" data-name="Trazado 2" d="M439.1,601.19c8.5.213,15.884,5.583,18.018,13.244,2.485,8.92-1.931,17.935-10.719,21.878-9.191,4.126-20.423.39-24.8-8.249-5.31-10.468.7-23.186,12.352-26.064C435.627,601.584,437.376,601.453,439.1,601.19Zm9.08,18.411a9.3,9.3,0,0,0-9.348-9.554,9.692,9.692,0,0,0-9.574,9.664,9.291,9.291,0,0,0,9.348,9.559,9.7,9.7,0,0,0,9.574-9.669Z" transform="translate(-325.276 -478.483)"/>
      <path id="Trazado_3" data-name="Trazado 3" d="M147.512,637.194h-9.5c.018-1.1.045-2.139.053-3.174.04-5.31.308-10.636.048-15.926-.273-5.531-4.965-8.767-10.185-7.48-3.554.884-6.112,4.308-6.245,8.627-.17,5.486-.22,10.974-.321,16.463,0,.471-.018.939-.025,1.486h-9.546c-.023-.321-.075-.651-.07-.985.09-5.443.11-10.888.306-16.332.23-6.658,2.878-12.169,8.782-15.676,10.771-6.4,26.419-.832,27,14.528.225,5.907-.118,11.843-.205,17.768A6.759,6.759,0,0,1,147.512,637.194Z" transform="translate(-94.481 -478.783)"/>
      <path id="Trazado_4" data-name="Trazado 4" d="M260,605.683c3.291,0,6.465-.037,9.631.045.376,0,.879.6,1.062,1.032,2.713,6.358,5.383,12.733,8.063,19.1.183.436.381.867.666,1.5.278-.564.489-.967.676-1.378,2.906-6.37,5.824-12.732,8.695-19.117a1.71,1.71,0,0,1,1.836-1.233c2.988.073,5.982.028,9.125.028-.251.574-.4.975-.589,1.358q-7.78,16.074-15.553,32.153a1.618,1.618,0,0,1-1.753,1.14c-1.866-.09-3.757,0-5.613-.058a1.551,1.551,0,0,1-1.165-.671q-7.54-16.638-15-33.315A3.265,3.265,0,0,1,260,605.683Z" transform="translate(-205.619 -481.816)"/>
      <path id="Trazado_5" data-name="Trazado 5" d="M663.677,627.2c.263-.534.461-.909.636-1.295,2.905-6.368,5.824-12.733,8.692-19.118a1.776,1.776,0,0,1,1.932-1.295c2.951.085,5.909.03,9.07.03-.238.541-.393.924-.571,1.295q-7.81,16.134-15.611,32.27a1.521,1.521,0,0,1-1.646,1.083c-1.911-.083-3.833,0-5.744-.053a1.391,1.391,0,0,1-1.08-.609q-7.559-16.7-15.029-33.441c-.048-.1,0-.25,0-.546a70.639,70.639,0,0,0,7.137-.052c2.36-.24,3.454.631,4.3,2.828,2.255,5.889,4.822,11.656,7.264,17.47C663.2,626.195,663.4,626.618,663.677,627.2Z" transform="translate(-493.659 -481.665)"/>
      <path id="Trazado_6" data-name="Trazado 6" d="M598.459,606.055H589L589.814,560h9.456Z" transform="translate(-452.207 -447.611)"/>
      <path id="Trazado_7" data-name="Trazado 7" d="M56.068,640.605H46.65l.6-34.505H56.67Z" transform="translate(-45.711 -482.163)"/>
      <path id="Trazado_8" data-name="Trazado 8" d="M48.3,775.987a5.282,5.282,0,0,1-5.4-5.42A5.624,5.624,0,0,1,48.523,765a5.491,5.491,0,0,1,5.371,5.534A5.613,5.613,0,0,1,48.3,775.987Z" transform="translate(-42.903 -601.26)"/>
      <ellipse id="Elipse_1" data-name="Elipse 1" cx="13.787" cy="13.549" rx="13.787" ry="13.549" transform="matrix(0.71, -0.704, 0.704, 0.71, 55.505, 19.412)" fill="#6ee3e3"/>
      <path id="Trazado_9" data-name="Trazado 9" d="M344.32,307.53Z" transform="translate(-268.818 -258.383)" fill="#6ee3e3"/>
      <path id="Trazado_10" data-name="Trazado 10" d="M278.151,178.669c-10.969-9.952-21.224-20.415-28.889-33.23-3.427-5.731-8.106-9.98-14.849-11.693a43.585,43.585,0,0,0-21.825-.265c-4.92,1.252-9.3,3.477-12.525,7.853-2.217,3.021-1.7,1.7-6.914,8.8s-7.194,11.811-18.677,19.411-18.692,6.913-30,6.578H143.1c-17.387-.376-31.527-6.488-40.412-22.126a38.733,38.733,0,0,0-9.8-11.1c-2.841-2.254-6.082-3.379-9.682-1.611a9.426,9.426,0,0,0-5.6,9.075c0,9.606,4.734,17.033,11.387,23.075,10.972,9.952,21.227,20.413,28.889,33.225,3.429,5.731,8.106,9.98,14.852,11.693a43.544,43.544,0,0,0,21.823.263c4.92-1.252,9.3-3.474,12.512-7.85,2.219-3.021,4.311-5.483,6.913-8.807,5.816-7.422,9.5-12.9,18.677-19.408s18.692-6.914,30-6.58c0,0,.686,0,1.38.015,17.387.376,31.529,6.485,40.412,22.126a38.8,38.8,0,0,0,9.8,11.1c2.843,2.254,6.084,3.377,9.681,1.611a9.429,9.429,0,0,0,5.619-9.085C289.531,192.138,284.8,184.7,278.151,178.669Z" transform="translate(-68.909 -126.984)" fill="#6ee3e3"/>
      <path id="Trazado_11" data-name="Trazado 11" d="M657,306.93Z" transform="translate(-503.174 -257.933)" fill="#6ee3e3"/>
      <ellipse id="Elipse_2" data-name="Elipse 2" cx="13.787" cy="13.549" rx="13.787" ry="13.549" transform="matrix(0.71, -0.704, 0.704, 0.71, 132.939, 81.371)" fill="#6ee3e3"/>
      <g id="Grupo_2834" data-name="Grupo 2834" transform="translate(223.932 114.235)">
        <path id="Trazado_4095" data-name="Trazado 4095" d="M962.867,610.741H960.8V613.7h-.739V606.31h2.951a2.213,2.213,0,0,1,.625,4.337l1.811,3.051h-.841Zm-2.068-.7h2.213a1.521,1.521,0,0,0,0-3.037H960.8Z" transform="translate(-956.407 -604.031)"/>
        <g id="Grupo_1" data-name="Grupo 1">
          <path id="Trazado_4096" data-name="Trazado 4096" d="M958.3,613.6a6.305,6.305,0,1,1,6.3-6.3A6.306,6.306,0,0,1,958.3,613.6Zm0-11.972a5.672,5.672,0,1,0,5.671,5.672A5.672,5.672,0,0,0,958.3,601.628Z" transform="translate(-951.99 -600.99)"/>
        </g>
      </g>
    </g>
  </g>
</svg>
